<svg width="131" height="32" viewBox="0 0 131 32" fill="none" xmlns="http://www.w3.org/2000/svg">
<path d="M3.783 6.826L12 5L20.217 6.826C20.4391 6.87536 20.6377 6.99897 20.78 7.1764C20.9224 7.35384 21 7.57452 21 7.802V17.789C20.9999 18.7767 20.756 19.7492 20.2899 20.62C19.8238 21.4908 19.1499 22.2331 18.328 22.781L12 27L5.672 22.781C4.85027 22.2332 4.17646 21.4911 3.71035 20.6205C3.24424 19.7498 3.00024 18.7776 3 17.79V7.802C3.00004 7.57452 3.07764 7.35384 3.21999 7.1764C3.36234 6.99897 3.56094 6.87536 3.783 6.826ZM13 14V9L8 16H11V21L16 14H13Z" fill="#B33030"/>
<path d="M41.472 9.684C41.472 10.3933 41.304 11.056 40.968 11.672C40.6507 12.288 40.212 12.8013 39.652 13.212C39.092 13.6227 38.448 13.8747 37.72 13.968V14.08C39.176 14.3787 40.324 14.9947 41.164 15.928C42.004 16.8613 42.424 18.0093 42.424 19.372C42.424 20.4173 42.144 21.388 41.584 22.284C41.0427 23.1613 40.352 23.8147 39.512 24.244C38.9893 24.5053 38.3453 24.7013 37.58 24.832C36.8147 24.944 35.7413 25 34.36 25H25.148V23.376L27.5 22.788V7.052L25.148 6.464V4.84H35.396C37.356 4.84 38.868 5.316 39.932 6.268C40.4173 6.716 40.7907 7.23867 41.052 7.836C41.332 8.43333 41.472 9.04933 41.472 9.684ZM33.884 15.508H31.14V22.9H33.38C34.2387 22.9 34.9293 22.8533 35.452 22.76C35.9747 22.6667 36.4133 22.5173 36.768 22.312C37.272 22.0507 37.6827 21.64 38 21.08C38.3173 20.5013 38.476 19.8387 38.476 19.092C38.476 18.4387 38.3547 17.888 38.112 17.44C37.8693 16.992 37.5613 16.6187 37.188 16.32C36.852 16.0587 36.4227 15.8627 35.9 15.732C35.3773 15.5827 34.7053 15.508 33.884 15.508ZM31.14 6.884V13.464H33.8C35.1067 13.464 36.068 13.1373 36.684 12.484C36.964 12.2227 37.2067 11.896 37.412 11.504C37.6173 11.0933 37.72 10.6267 37.72 10.104C37.72 9.58133 37.6173 9.11467 37.412 8.704C37.2067 8.29333 36.964 7.96667 36.684 7.724C36.124 7.164 35.2 6.884 33.912 6.884H31.14ZM59.1194 17.44C59.1194 18.6347 58.9421 19.764 58.5874 20.828C58.2514 21.8733 57.7568 22.7507 57.1034 23.46C56.4874 24.1133 55.7408 24.58 54.8634 24.86C54.0048 25.14 52.9968 25.28 51.8394 25.28C50.6821 25.28 49.6648 25.14 48.7874 24.86C47.9288 24.58 47.1914 24.1133 46.5754 23.46C45.9221 22.7507 45.4181 21.8733 45.0634 20.828C44.7274 19.764 44.5594 18.6347 44.5594 17.44C44.5594 16.2453 44.7274 15.116 45.0634 14.052C45.4181 12.988 45.9221 12.1107 46.5754 11.42C47.1914 10.7667 47.9288 10.3 48.7874 10.02C49.6648 9.74 50.6821 9.6 51.8394 9.6C52.9968 9.6 54.0048 9.74 54.8634 10.02C55.7408 10.3 56.4874 10.7667 57.1034 11.42C57.7568 12.1107 58.2514 12.988 58.5874 14.052C58.9421 15.116 59.1194 16.2453 59.1194 17.44ZM49.2914 22.284C49.5528 22.6573 49.8888 22.9373 50.2994 23.124C50.7288 23.3107 51.2421 23.404 51.8394 23.404C52.4368 23.404 52.9501 23.3107 53.3794 23.124C53.8088 22.9373 54.1448 22.6573 54.3874 22.284C54.9848 21.3693 55.2834 19.7547 55.2834 17.44C55.2834 16.264 55.2088 15.2747 55.0594 14.472C54.9101 13.6693 54.6861 13.044 54.3874 12.596C54.1448 12.2227 53.8088 11.9427 53.3794 11.756C52.9501 11.5693 52.4368 11.476 51.8394 11.476C51.2421 11.476 50.7288 11.5693 50.2994 11.756C49.8888 11.9427 49.5528 12.2227 49.2914 12.596C48.6941 13.5107 48.3954 15.1253 48.3954 17.44C48.3954 19.7547 48.6941 21.3693 49.2914 22.284ZM75.7444 17.44C75.7444 18.6347 75.5671 19.764 75.2124 20.828C74.8764 21.8733 74.3818 22.7507 73.7284 23.46C73.1124 24.1133 72.3658 24.58 71.4884 24.86C70.6298 25.14 69.6218 25.28 68.4644 25.28C67.3071 25.28 66.2898 25.14 65.4124 24.86C64.5538 24.58 63.8164 24.1133 63.2004 23.46C62.5471 22.7507 62.0431 21.8733 61.6884 20.828C61.3524 19.764 61.1844 18.6347 61.1844 17.44C61.1844 16.2453 61.3524 15.116 61.6884 14.052C62.0431 12.988 62.5471 12.1107 63.2004 11.42C63.8164 10.7667 64.5538 10.3 65.4124 10.02C66.2898 9.74 67.3071 9.6 68.4644 9.6C69.6218 9.6 70.6298 9.74 71.4884 10.02C72.3658 10.3 73.1124 10.7667 73.7284 11.42C74.3818 12.1107 74.8764 12.988 75.2124 14.052C75.5671 15.116 75.7444 16.2453 75.7444 17.44ZM65.9164 22.284C66.1778 22.6573 66.5138 22.9373 66.9244 23.124C67.3538 23.3107 67.8671 23.404 68.4644 23.404C69.0618 23.404 69.5751 23.3107 70.0044 23.124C70.4338 22.9373 70.7698 22.6573 71.0124 22.284C71.6098 21.3693 71.9084 19.7547 71.9084 17.44C71.9084 16.264 71.8338 15.2747 71.6844 14.472C71.5351 13.6693 71.3111 13.044 71.0124 12.596C70.7698 12.2227 70.4338 11.9427 70.0044 11.756C69.5751 11.5693 69.0618 11.476 68.4644 11.476C67.8671 11.476 67.3538 11.5693 66.9244 11.756C66.5138 11.9427 66.1778 12.2227 65.9164 12.596C65.3191 13.5107 65.0204 15.1253 65.0204 17.44C65.0204 19.7547 65.3191 21.3693 65.9164 22.284ZM83.5774 23.572C84.5108 23.572 85.3041 23.3947 85.9574 23.04C86.6294 22.6853 86.9654 22.1907 86.9654 21.556C86.9654 21.052 86.7601 20.632 86.3494 20.296C85.9574 19.96 85.4534 19.68 84.8374 19.456C84.2401 19.232 83.6241 19.0267 82.9894 18.84C82.2241 18.5973 81.4868 18.2893 80.7774 17.916C80.0681 17.5427 79.4894 17.048 79.0414 16.432C78.5934 15.7973 78.3694 15.004 78.3694 14.052C78.3694 12.708 78.8548 11.6347 79.8254 10.832C80.8148 10.0107 82.2054 9.6 83.9974 9.6C85.7148 9.6 87.0774 9.964 88.0854 10.692C89.1121 11.4013 89.6254 12.3253 89.6254 13.464C89.6254 14.0987 89.4481 14.5933 89.0934 14.948C88.7574 15.284 88.2908 15.452 87.6934 15.452C87.0961 15.452 86.6294 15.312 86.2934 15.032C85.9574 14.7333 85.7894 14.388 85.7894 13.996C85.7894 13.6787 85.8828 13.3707 86.0694 13.072C86.2561 12.7733 86.4988 12.5587 86.7974 12.428C86.5548 12.0733 86.2094 11.8027 85.7614 11.616C85.3134 11.4107 84.7628 11.308 84.1094 11.308C83.2508 11.308 82.5974 11.4947 82.1494 11.868C81.7201 12.2227 81.5054 12.7267 81.5054 13.38C81.5054 13.8653 81.6174 14.276 81.8414 14.612C82.0654 14.9293 82.3734 15.1907 82.7654 15.396C83.1761 15.6013 83.6521 15.788 84.1934 15.956C84.9401 16.18 85.6681 16.4133 86.3774 16.656C87.1054 16.8987 87.7588 17.1973 88.3374 17.552C88.9161 17.9067 89.3734 18.3453 89.7094 18.868C90.0641 19.372 90.2414 19.988 90.2414 20.716C90.2414 21.6867 89.9428 22.5173 89.3454 23.208C88.7481 23.88 87.9361 24.3933 86.9094 24.748C85.9014 25.1027 84.7628 25.28 83.4934 25.28C81.7201 25.28 80.3294 24.9533 79.3214 24.3C78.3134 23.628 77.8094 22.7413 77.8094 21.64C77.8094 20.8747 78.0241 20.2773 78.4534 19.848C78.8828 19.4187 79.3961 19.204 79.9934 19.204C80.4414 19.204 80.8521 19.3347 81.2254 19.596C81.6174 19.8387 81.8134 20.1933 81.8134 20.66C81.8134 20.996 81.7108 21.3227 81.5054 21.64C81.3001 21.9573 81.0668 22.1907 80.8054 22.34C80.9921 22.6387 81.3001 22.9187 81.7294 23.18C82.1588 23.4413 82.7748 23.572 83.5774 23.572ZM91.3509 11.7V10.272L94.0949 9.88L94.4309 6.408L97.6229 5.96V9.88H101.207V11.7H97.6229V20.856C97.6229 21.4907 97.6323 21.9293 97.6509 22.172C97.6696 22.396 97.7069 22.5827 97.7629 22.732C97.8189 22.844 97.9216 22.928 98.0709 22.984C98.2203 23.04 98.4629 23.068 98.7989 23.068H100.759V24.3C99.6763 24.636 98.7149 24.8787 97.8749 25.028C97.0536 25.196 96.4003 25.28 95.9149 25.28C95.0749 25.28 94.5336 24.9347 94.2909 24.244C94.2163 24.02 94.1603 23.7307 94.1229 23.376C94.0856 23.0213 94.0669 22.4987 94.0669 21.808V11.7H91.3509ZM115.942 17.832H106.17C106.17 19.1013 106.356 20.156 106.73 20.996C107.028 21.6307 107.43 22.1253 107.934 22.48C108.438 22.816 109.063 22.984 109.81 22.984C110.631 22.984 111.443 22.7973 112.246 22.424C113.067 22.0507 113.767 21.4907 114.346 20.744L115.858 21.92C115.204 22.8533 114.318 23.6467 113.198 24.3C112.096 24.9533 110.734 25.28 109.11 25.28C107.747 25.28 106.571 25.0093 105.582 24.468C104.592 23.908 103.836 23.096 103.314 22.032C103.034 21.4533 102.828 20.8093 102.698 20.1C102.567 19.3907 102.502 18.6253 102.502 17.804C102.502 15.1907 103.099 13.1747 104.294 11.756C105.507 10.3187 107.215 9.6 109.418 9.6C111.452 9.6 113.058 10.1973 114.234 11.392C115.428 12.568 116.026 14.2013 116.026 16.292C116.026 16.4973 116.016 16.7027 115.998 16.908C115.998 17.0947 115.979 17.4027 115.942 17.832ZM109.362 11.532C107.439 11.532 106.384 13.0347 106.198 16.04H112.358V15.312C112.358 14.0987 112.087 13.1653 111.546 12.512C111.023 11.8587 110.295 11.532 109.362 11.532ZM126.236 11.924C126.031 11.924 125.797 12.0547 125.536 12.316C125.275 12.5587 125.032 12.848 124.808 13.184C124.603 13.52 124.453 13.8187 124.36 14.08C124.136 14.7147 123.94 15.368 123.772 16.04C123.604 16.712 123.52 17.5333 123.52 18.504V22.9L126.544 23.432V25H117.808V23.432L119.964 22.9V11.56L117.808 11.028V9.88H122.68L123.296 13.576H123.408C123.837 12.3067 124.416 11.3267 125.144 10.636C125.872 9.94533 126.675 9.6 127.552 9.6C128.28 9.6 128.887 9.83333 129.372 10.3C129.857 10.748 130.1 11.3547 130.1 12.12C130.1 12.68 129.932 13.1933 129.596 13.66C129.26 14.108 128.784 14.332 128.168 14.332C127.421 14.332 126.889 14.164 126.572 13.828C126.255 13.4733 126.096 13.0907 126.096 12.68C126.096 12.5493 126.096 12.456 126.096 12.4C126.115 12.3253 126.161 12.1667 126.236 11.924Z" fill="#19282F"/>
</svg>
